<?xml version="1.0" encoding="UTF-8" ?>
<!DOCTYPE svg PUBLIC "-//W3C//DTD SVG 1.1//EN" "http://www.w3.org/Graphics/SVG/1.1/DTD/svg11.dtd">
<svg width="100pt" height="206pt" viewBox="0 0 100 206" version="1.1" xmlns="http://www.w3.org/2000/svg">
<path fill="#ffffff" d=" M 0.00 0.00 L 48.29 0.00 C 35.75 0.52 23.49 5.78 14.63 14.69 C 5.95 23.27 0.81 35.12 0.00 47.26 L 0.00 0.00 Z" />
<path fill="#f36d3f" d=" M 48.29 0.00 L 52.70 0.00 C 67.97 0.93 82.68 9.01 91.25 21.75 C 96.11 28.56 98.57 36.70 100.00 44.87 L 100.00 58.09 C 98.75 60.99 98.15 64.10 97.15 67.08 C 94.63 73.96 90.54 80.21 85.42 85.44 C 85.04 84.93 84.28 83.91 83.90 83.40 C 83.71 83.15 83.34 82.64 83.16 82.39 C 91.37 73.74 96.55 62.04 96.33 50.02 C 96.64 34.98 88.78 20.12 76.28 11.78 C 70.68 7.73 63.99 5.80 57.44 3.91 C 52.65 2.39 47.34 2.33 42.56 3.93 C 38.15 5.32 33.58 6.35 29.41 8.40 C 24.65 10.66 20.64 14.14 16.46 17.28 C 16.01 16.63 15.09 15.34 14.63 14.69 C 23.49 5.78 35.75 0.52 48.29 0.00 Z" />
<path fill="#ffffff" d=" M 52.70 0.00 L 100.00 0.00 L 100.00 44.87 C 98.57 36.70 96.11 28.56 91.25 21.75 C 82.68 9.01 67.97 0.93 52.70 0.00 Z" />
<path fill="#e98669" d=" M 42.56 3.93 C 47.34 2.33 52.65 2.39 57.44 3.91 C 52.48 4.00 47.52 4.02 42.56 3.93 Z" />
<path fill="#c9543e" d=" M 29.41 8.40 C 33.58 6.35 38.15 5.32 42.56 3.93 C 47.52 4.02 52.48 4.00 57.44 3.91 C 63.99 5.80 70.68 7.73 76.28 11.78 C 88.78 20.12 96.64 34.98 96.33 50.02 C 96.55 62.04 91.37 73.74 83.16 82.39 C 83.34 82.64 83.71 83.15 83.90 83.40 C 79.69 85.10 76.73 88.77 72.65 90.68 C 59.75 97.79 43.51 98.26 30.24 91.86 C 21.46 87.52 13.35 81.02 8.76 72.21 C -0.71 54.88 2.07 31.13 16.46 17.28 C 20.64 14.14 24.65 10.66 29.41 8.40 Z" />
<path fill="#f3dd90" d=" M 24.99 24.59 C 36.33 12.60 56.35 10.72 69.81 20.21 C 78.06 25.79 83.78 34.99 84.93 44.90 C 86.33 55.51 82.53 66.74 74.74 74.13 C 74.14 73.44 72.92 72.07 72.32 71.38 C 79.55 63.79 83.25 52.55 80.55 42.24 C 77.62 29.15 65.52 18.67 52.06 18.07 C 43.25 17.46 34.12 20.69 28.02 27.16 C 27.01 26.31 26.00 25.45 24.99 24.59 Z" />
<path fill="#953d2a" d=" M 0.00 47.26 C 0.81 35.12 5.95 23.27 14.63 14.69 C 15.09 15.34 16.01 16.63 16.46 17.28 C 2.07 31.13 -0.71 54.88 8.76 72.21 C 13.35 81.02 21.46 87.52 30.24 91.86 C 43.51 98.26 59.75 97.79 72.65 90.68 C 76.73 88.77 79.69 85.10 83.90 83.40 C 84.28 83.91 85.04 84.93 85.42 85.44 L 85.60 85.89 C 84.51 86.68 83.44 87.51 82.35 88.30 C 75.84 92.89 68.78 96.95 60.88 98.56 C 59.50 98.83 58.12 99.07 56.74 99.28 C 53.23 99.73 49.69 99.72 46.16 99.65 C 33.90 98.83 22.55 92.82 13.61 84.62 C 5.51 75.60 0.12 63.96 0.00 51.71 L 0.00 47.26 Z" />
<path fill="#f3ba50" d=" M 28.02 27.16 C 34.12 20.69 43.25 17.46 52.06 18.07 C 65.52 18.67 77.62 29.15 80.55 42.24 C 83.25 52.55 79.55 63.79 72.32 71.38 C 65.99 76.46 58.36 80.50 50.03 80.20 C 33.82 80.69 18.71 66.31 18.87 50.03 C 18.34 41.51 22.43 33.35 28.02 27.16 Z" />
<path fill="#ffffff" d=" M 43.45 22.69 C 49.25 21.54 55.47 21.95 60.89 24.43 C 70.36 28.61 77.17 38.57 76.95 49.01 C 77.38 57.17 73.66 65.26 67.46 70.51 C 56.92 79.86 39.00 79.01 29.53 68.48 C 20.26 59.07 19.59 42.86 27.82 32.59 C 31.69 27.60 37.31 24.09 43.45 22.69 Z" />
<path fill="#242021" d=" M 45.05 22.76 C 45.56 22.89 46.60 23.16 47.11 23.30 C 48.61 24.30 50.41 24.28 51.88 23.24 C 55.57 22.58 59.49 24.46 62.80 26.15 C 70.58 30.52 75.76 38.89 76.41 47.77 C 74.59 46.92 72.79 46.06 70.94 45.31 C 68.98 45.09 67.01 45.07 65.04 45.08 C 63.17 42.77 60.96 40.73 58.23 39.48 C 58.05 36.83 57.88 34.17 57.34 31.56 C 51.49 30.81 45.20 30.34 39.48 31.69 C 38.64 33.60 38.57 35.71 38.48 37.77 C 35.73 37.95 32.99 38.14 30.24 38.36 C 30.53 40.93 30.84 43.49 31.15 46.05 C 29.30 46.25 27.45 46.45 25.61 46.64 C 25.49 48.24 25.38 49.83 25.27 51.43 C 25.63 51.46 26.34 51.53 26.70 51.56 C 28.11 52.31 29.55 53.07 30.80 54.09 C 30.85 56.34 30.54 58.58 30.31 60.82 C 32.87 61.32 35.47 61.63 38.07 61.87 C 38.19 63.73 38.18 65.61 38.59 67.44 C 39.78 68.51 41.48 68.42 42.97 68.50 C 47.69 68.54 52.40 68.49 57.12 68.38 C 57.53 65.49 57.98 62.60 58.48 59.72 C 61.14 58.41 63.57 56.65 65.22 54.13 C 69.15 53.96 73.10 53.30 76.43 51.08 C 75.81 61.85 68.27 71.88 57.93 75.11 C 56.26 75.46 54.49 76.45 52.77 75.82 C 50.68 74.71 48.32 74.67 46.23 75.80 C 38.43 75.90 31.24 70.47 27.01 64.14 C 25.84 61.87 23.88 59.52 24.13 56.88 C 24.78 55.86 25.21 54.60 24.68 53.43 C 24.37 53.59 23.74 53.90 23.43 54.05 L 22.87 54.35 C 22.96 53.74 23.14 52.50 23.23 51.88 C 24.27 50.42 24.34 48.62 23.28 47.14 C 23.16 46.60 22.93 45.52 22.82 44.98 L 23.33 45.23 C 23.67 45.39 24.34 45.72 24.68 45.89 C 25.50 41.87 27.37 38.14 27.90 34.05 C 27.99 33.81 28.17 33.33 28.26 33.08 L 29.26 34.05 C 33.75 29.39 39.19 25.35 45.85 24.71 C 45.70 24.35 45.40 23.62 45.25 23.26 L 45.05 22.76 Z" />
<path fill="#0a0506" d=" M 47.11 23.30 C 48.31 22.17 50.64 22.19 51.88 23.24 C 50.41 24.28 48.61 24.30 47.11 23.30 Z" />
<path fill="#0d0b0b" d=" M 28.26 33.08 C 32.55 28.02 38.49 23.85 45.25 23.26 C 45.40 23.62 45.70 24.35 45.85 24.71 C 39.19 25.35 33.75 29.39 29.26 34.05 L 28.26 33.08 Z" />
<path fill="#aa7c2c" d=" M 19.73 67.32 C 11.55 54.02 13.80 35.49 24.99 24.59 C 26.00 25.45 27.01 26.31 28.02 27.16 C 22.43 33.35 18.34 41.51 18.87 50.03 C 18.71 66.31 33.82 80.69 50.03 80.20 C 58.36 80.50 65.99 76.46 72.32 71.38 C 72.92 72.07 74.14 73.44 74.74 74.13 C 68.39 80.81 59.13 84.49 49.94 84.35 C 37.81 84.46 25.91 77.76 19.73 67.32 Z" />
<path fill="#0f0a0b" d=" M 39.48 31.69 C 45.20 30.34 51.49 30.81 57.34 31.56 L 56.71 32.60 C 50.98 32.85 45.24 32.61 39.51 32.75 L 39.48 31.69 Z" />
<path fill="#030404" d=" M 38.48 37.77 C 38.57 35.71 38.64 33.60 39.48 31.69 L 39.51 32.75 C 39.59 35.00 39.83 37.23 40.18 39.44 C 37.20 39.43 34.21 39.44 31.23 39.53 C 31.59 40.23 31.95 40.92 32.30 41.62 C 32.48 43.57 32.88 45.48 33.40 47.37 C 31.03 47.35 28.66 47.35 26.29 47.39 C 26.40 48.78 26.54 50.17 26.70 51.56 C 26.34 51.53 25.63 51.46 25.27 51.43 C 25.38 49.83 25.49 48.24 25.61 46.64 C 27.45 46.45 29.30 46.25 31.15 46.05 C 30.84 43.49 30.53 40.93 30.24 38.36 C 32.99 38.14 35.73 37.95 38.48 37.77 Z" />
<path fill="#ffffff" d=" M 39.51 32.75 C 45.24 32.61 50.98 32.85 56.71 32.60 C 56.55 34.87 56.50 37.14 56.42 39.41 C 56.42 39.48 56.41 39.61 56.40 39.68 L 56.46 39.73 C 58.81 41.44 61.36 42.92 63.36 45.08 C 63.52 45.60 63.86 46.64 64.02 47.16 C 66.05 46.50 68.18 46.43 70.30 46.45 C 71.95 47.45 73.68 48.30 75.40 49.16 C 72.22 51.70 68.23 53.06 64.17 52.15 C 63.10 55.74 59.92 57.94 56.47 58.95 C 56.59 61.49 56.71 64.02 56.90 66.56 C 51.07 66.88 45.22 66.71 39.38 66.56 C 39.72 64.41 40.11 62.26 40.45 60.11 C 37.41 60.22 34.32 60.45 31.34 59.67 C 32.22 57.00 32.91 54.27 33.62 51.55 C 31.31 51.45 29.00 51.43 26.70 51.56 C 26.54 50.17 26.40 48.78 26.29 47.39 C 28.66 47.35 31.03 47.35 33.40 47.37 C 32.88 45.48 32.48 43.57 32.30 41.62 C 31.95 40.92 31.59 40.23 31.23 39.53 C 34.21 39.44 37.20 39.43 40.18 39.44 C 39.83 37.23 39.59 35.00 39.51 32.75 Z" />
<path fill="#030404" d=" M 56.71 32.60 L 57.34 31.56 C 57.88 34.17 58.05 36.83 58.23 39.48 C 60.96 40.73 63.17 42.77 65.04 45.08 L 63.36 45.08 C 61.36 42.92 58.81 41.44 56.46 39.73 L 56.42 39.41 C 56.50 37.14 56.55 34.87 56.71 32.60 Z" />
<path fill="#c30a16" d=" M 40.64 33.68 C 45.62 33.72 50.61 33.73 55.59 33.68 C 55.44 37.54 55.18 41.39 55.05 45.25 C 53.49 45.40 51.94 45.56 50.39 45.73 C 50.95 42.88 50.69 39.97 50.74 37.08 C 48.83 37.35 45.59 36.35 46.33 39.56 C 44.51 39.49 42.69 39.44 40.87 39.37 C 40.76 37.47 40.69 35.58 40.64 33.68 Z" />
<path fill="#0f0c0d" d=" M 23.33 45.23 C 23.54 41.16 25.36 37.20 27.90 34.05 C 27.37 38.14 25.50 41.87 24.68 45.89 C 24.34 45.72 23.67 45.39 23.33 45.23 Z" />
<path fill="#242021" d=" M 47.44 37.90 C 48.12 37.88 49.47 37.84 50.15 37.82 C 49.99 38.63 49.67 40.25 49.51 41.06 C 43.91 40.54 38.28 41.15 32.68 40.68 C 37.69 39.93 42.80 40.48 47.85 40.24 C 47.75 39.66 47.54 38.48 47.44 37.90 Z" />
<path fill="#242021" d=" M 56.40 39.68 C 56.41 39.61 56.42 39.48 56.42 39.41 L 56.46 39.73 L 56.40 39.68 Z" />
<path fill="#070506" d=" M 32.68 40.68 C 38.28 41.15 43.91 40.54 49.51 41.06 C 49.69 41.66 50.06 42.85 50.25 43.45 C 46.43 43.36 42.61 43.56 38.81 43.31 C 38.62 42.96 38.26 42.25 38.08 41.90 C 37.42 41.92 36.08 41.98 35.41 42.01 C 34.99 43.24 34.57 44.47 34.15 45.70 C 33.66 44.02 33.21 42.34 32.68 40.68 Z" />
<path fill="#242021" d=" M 35.41 42.01 C 36.08 41.98 37.42 41.92 38.08 41.90 C 38.26 42.25 38.62 42.96 38.81 43.31 C 38.78 44.00 38.74 44.68 38.68 45.36 L 39.97 45.10 C 39.82 45.70 39.51 46.89 39.36 47.48 L 40.65 47.31 C 40.66 48.94 40.94 50.59 40.73 52.22 C 40.61 52.36 40.36 52.63 40.24 52.76 C 39.27 53.69 38.33 54.64 37.35 55.57 C 39.82 55.57 41.77 56.85 40.45 59.53 C 37.78 59.47 35.12 59.47 32.46 59.48 C 32.66 56.51 34.74 53.60 34.24 50.70 C 31.90 50.02 29.28 51.06 27.05 50.01 C 27.13 49.57 27.29 48.70 27.37 48.27 C 29.69 48.12 32.01 48.19 34.32 48.11 C 34.28 47.51 34.19 46.30 34.15 45.70 C 34.57 44.47 34.99 43.24 35.41 42.01 Z" />
<path fill="#242021" d=" M 55.62 41.19 C 59.64 42.00 62.47 45.14 64.20 48.68 C 64.85 48.18 65.49 47.67 66.14 47.17 C 68.70 47.20 71.17 47.81 73.49 48.86 C 71.93 51.40 68.43 51.35 65.79 51.64 C 64.23 48.37 63.06 52.72 62.24 54.07 C 58.68 58.93 51.98 59.15 46.51 59.67 C 46.52 58.49 46.53 57.32 46.55 56.14 C 50.38 56.56 55.41 56.34 57.47 52.47 C 57.62 50.59 58.43 48.27 57.37 46.57 C 55.80 45.19 55.34 43.21 55.62 41.19 Z" />
<path fill="#c30a16" d=" M 41.76 44.00 C 43.26 43.99 44.75 43.99 46.24 43.99 C 46.38 45.18 46.51 46.37 46.64 47.56 C 49.43 47.52 52.21 47.49 54.99 47.73 C 55.14 50.11 55.23 52.50 55.07 54.88 C 53.80 55.12 52.53 55.38 51.26 55.62 C 51.09 54.21 50.94 52.79 50.78 51.37 C 47.67 51.41 44.57 51.41 41.46 51.43 C 41.55 48.95 41.62 46.47 41.76 44.00 Z" />
<path fill="#242021" d=" M 47.56 46.47 C 46.64 45.50 47.83 44.54 48.37 43.78 C 49.42 47.95 54.48 45.02 57.37 46.57 C 57.00 48.71 58.10 51.74 55.73 52.99 C 55.44 50.98 56.12 48.67 55.05 46.83 C 52.57 46.38 50.03 46.92 47.56 46.47 Z" />
<path fill="#090506" d=" M 63.36 45.08 L 65.04 45.08 C 67.01 45.07 68.98 45.09 70.94 45.31 L 70.30 46.45 C 68.18 46.43 66.05 46.50 64.02 47.16 C 63.86 46.64 63.52 45.60 63.36 45.08 Z" />
<path fill="#030404" d=" M 70.94 45.31 C 72.79 46.06 74.59 46.92 76.41 47.77 C 76.41 48.60 76.42 50.25 76.43 51.08 C 73.10 53.30 69.15 53.96 65.22 54.13 C 63.57 56.65 61.14 58.41 58.48 59.72 C 57.98 62.60 57.53 65.49 57.12 68.38 C 52.40 68.49 47.69 68.54 42.97 68.50 C 41.48 68.42 39.78 68.51 38.59 67.44 C 38.18 65.61 38.19 63.73 38.07 61.87 C 35.47 61.63 32.87 61.32 30.31 60.82 C 30.54 58.58 30.85 56.34 30.80 54.09 C 29.55 53.07 28.11 52.31 26.70 51.56 C 29.00 51.43 31.31 51.45 33.62 51.55 C 32.91 54.27 32.22 57.00 31.34 59.67 C 34.32 60.45 37.41 60.22 40.45 60.11 C 40.11 62.26 39.72 64.41 39.38 66.56 C 45.22 66.71 51.07 66.88 56.90 66.56 C 56.71 64.02 56.59 61.49 56.47 58.95 C 59.92 57.94 63.10 55.74 64.17 52.15 C 68.23 53.06 72.22 51.70 75.40 49.16 C 73.68 48.30 71.95 47.45 70.30 46.45 L 70.94 45.31 Z" />
<path fill="#090506" d=" M 23.28 47.14 C 24.34 48.62 24.27 50.42 23.23 51.88 C 22.18 50.65 22.20 48.35 23.28 47.14 Z" />
<path fill="#ffffff" d=" M 0.00 51.71 C 0.12 63.96 5.51 75.60 13.61 84.62 C 14.09 86.69 14.75 88.71 15.39 90.74 C 23.10 122.71 30.49 154.77 38.05 186.78 C 36.79 186.89 35.53 187.05 34.29 187.25 C 34.27 187.59 34.23 188.28 34.22 188.63 C 34.16 194.42 34.28 200.21 34.17 206.00 L 0.00 206.00 L 0.00 51.71 Z" />
<path fill="#ffffff" d=" M 40.24 52.76 C 40.36 52.63 40.61 52.36 40.73 52.22 C 40.61 52.36 40.36 52.63 40.24 52.76 Z" />
<path fill="#242021" d=" M 40.73 52.22 C 43.88 51.93 47.04 52.35 50.20 52.25 C 50.94 54.27 50.38 55.56 48.53 56.12 C 48.81 52.89 44.98 54.06 42.96 53.86 C 41.47 53.75 40.71 55.31 39.57 55.98 C 39.74 55.17 40.07 53.56 40.24 52.76 C 40.36 52.63 40.61 52.36 40.73 52.22 Z" />
<path fill="#070405" d=" M 23.43 54.05 C 23.74 53.90 24.37 53.59 24.68 53.43 C 25.21 54.60 24.78 55.86 24.13 56.88 C 23.95 56.17 23.60 54.76 23.43 54.05 Z" />
<path fill="#c30a16" d=" M 41.74 54.79 C 43.31 54.70 44.88 54.59 46.45 54.47 C 44.82 56.65 45.50 59.43 45.28 61.95 C 47.03 62.85 49.02 62.62 50.92 62.66 C 51.19 61.58 51.44 60.50 51.69 59.42 C 53.14 59.51 54.57 59.64 56.01 59.81 C 56.01 61.90 56.02 64.00 56.02 66.10 C 51.69 66.16 47.36 66.23 43.03 66.08 C 41.72 66.10 40.86 65.42 40.47 64.07 C 42.08 61.27 41.40 57.87 41.74 54.79 Z" />
<path fill="#ffffff" d=" M 97.15 67.08 C 98.15 64.10 98.75 60.99 100.00 58.09 L 100.00 206.00 L 65.46 206.00 C 65.41 200.21 65.58 194.41 65.40 188.62 C 65.36 188.23 65.29 187.43 65.25 187.04 C 64.42 186.93 62.75 186.70 61.92 186.59 C 62.12 181.25 63.71 176.12 64.86 170.93 C 70.76 146.05 76.53 121.14 82.42 96.26 C 83.24 92.73 84.83 89.43 85.60 85.89 L 85.42 85.44 C 90.54 80.21 94.63 73.96 97.15 67.08 Z" />
<path fill="#242021" d=" M 47.02 60.46 C 47.72 60.45 49.12 60.43 49.82 60.42 C 50.21 61.82 46.72 61.85 47.02 60.46 Z" />
<path fill="#040202" d=" M 46.23 75.80 C 48.32 74.67 50.68 74.71 52.77 75.82 C 50.89 76.86 48.12 76.81 46.23 75.80 Z" />
<path fill="#966c32" d=" M 13.61 84.62 C 22.55 92.82 33.90 98.83 46.16 99.65 C 45.64 99.77 44.58 100.01 44.06 100.13 C 43.98 100.90 43.83 102.42 43.75 103.18 L 43.24 103.14 C 41.88 103.01 40.53 102.83 39.18 102.60 C 31.83 100.27 24.62 97.22 18.59 92.30 C 17.55 91.73 16.46 91.24 15.39 90.74 C 14.75 88.71 14.09 86.69 13.61 84.62 Z" />
<path fill="#f3dd90" d=" M 82.35 88.30 C 83.44 87.51 84.51 86.68 85.60 85.89 C 84.83 89.43 83.24 92.73 82.42 96.26 C 76.53 121.14 70.76 146.05 64.86 170.93 C 63.71 176.12 62.12 181.25 61.92 186.59 C 62.75 186.70 64.42 186.93 65.25 187.04 C 65.29 187.43 65.36 188.23 65.40 188.62 C 64.63 188.76 63.10 189.05 62.34 189.19 C 62.35 194.79 62.42 200.40 62.19 206.00 L 57.27 206.00 C 57.17 200.31 57.62 194.59 57.13 188.91 C 52.55 187.46 47.15 188.74 42.26 188.20 C 40.58 188.19 38.90 188.21 37.22 188.33 C 36.22 188.42 35.22 188.52 34.22 188.63 C 34.23 188.28 34.27 187.59 34.29 187.25 C 35.53 187.05 36.79 186.89 38.05 186.78 C 39.81 186.72 41.57 186.74 43.33 186.76 C 47.75 186.81 52.18 186.78 56.61 186.68 C 56.51 158.80 56.59 130.91 56.58 103.03 C 58.07 102.76 59.57 102.49 61.07 102.24 C 61.03 122.82 61.05 143.40 61.05 163.98 C 60.99 168.08 60.90 172.20 61.44 176.27 C 64.74 163.69 67.28 150.93 70.35 138.29 C 74.11 123.19 77.53 108.01 81.25 92.91 C 81.89 91.44 82.29 89.90 82.35 88.30 Z" />
<path fill="#c29540" d=" M 60.88 98.56 C 68.78 96.95 75.84 92.89 82.35 88.30 C 82.29 89.90 81.89 91.44 81.25 92.91 C 75.03 97.00 68.38 100.56 61.07 102.24 C 61.02 101.32 60.93 99.48 60.88 98.56 Z" />
<path fill="#aa7c2c" d=" M 15.39 90.74 C 16.46 91.24 17.55 91.73 18.59 92.30 C 18.60 93.87 18.60 95.46 18.95 97.01 C 23.73 115.58 26.94 134.51 31.54 153.13 C 33.81 161.81 35.49 170.67 38.72 179.07 C 39.39 153.59 38.55 128.08 39.18 102.60 C 40.53 102.83 41.88 103.01 43.24 103.14 C 43.61 131.01 43.38 158.89 43.33 186.76 C 41.57 186.74 39.81 186.72 38.05 186.78 C 30.49 154.77 23.10 122.71 15.39 90.74 Z" />
<path fill="#bc873f" d=" M 18.95 97.01 C 18.60 95.46 18.60 93.87 18.59 92.30 C 24.62 97.22 31.83 100.27 39.18 102.60 C 38.55 128.08 39.39 153.59 38.72 179.07 C 35.49 170.67 33.81 161.81 31.54 153.13 C 26.94 134.51 23.73 115.58 18.95 97.01 Z" />
<path fill="#f3ba50" d=" M 61.07 102.24 C 68.38 100.56 75.03 97.00 81.25 92.91 C 77.53 108.01 74.11 123.19 70.35 138.29 C 67.28 150.93 64.74 163.69 61.44 176.27 C 60.90 172.20 60.99 168.08 61.05 163.98 C 61.05 143.40 61.03 122.82 61.07 102.24 Z" />
<path fill="#b88c31" d=" M 46.16 99.65 C 49.69 99.72 53.23 99.73 56.74 99.28 C 56.68 100.53 56.63 101.78 56.58 103.03 C 52.32 103.39 48.03 103.45 43.75 103.18 C 43.83 102.42 43.98 100.90 44.06 100.13 C 44.58 100.01 45.64 99.77 46.16 99.65 Z" />
<path fill="#c2b173" d=" M 56.74 99.28 C 58.12 99.07 59.50 98.83 60.88 98.56 C 60.93 99.48 61.02 101.32 61.07 102.24 C 59.57 102.49 58.07 102.76 56.58 103.03 C 56.63 101.78 56.68 100.53 56.74 99.28 Z" />
<path fill="#e6af3d" d=" M 43.24 103.14 L 43.75 103.18 C 48.03 103.45 52.32 103.39 56.58 103.03 C 56.59 130.91 56.51 158.80 56.61 186.68 C 52.18 186.78 47.75 186.81 43.33 186.76 C 43.38 158.89 43.61 131.01 43.24 103.14 Z" />
<path fill="#e6af3d" d=" M 34.22 188.63 C 35.22 188.52 36.22 188.42 37.22 188.33 C 37.43 194.22 37.44 200.11 37.16 206.00 L 34.17 206.00 C 34.28 200.21 34.16 194.42 34.22 188.63 Z" />
<path fill="#aa7c2c" d=" M 37.22 188.33 C 38.90 188.21 40.58 188.19 42.26 188.20 C 42.44 194.13 42.36 200.07 42.32 206.00 L 37.16 206.00 C 37.44 200.11 37.43 194.22 37.22 188.33 Z" />
<path fill="#e6af3d" d=" M 42.26 188.20 C 47.15 188.74 52.55 187.46 57.13 188.91 C 57.62 194.59 57.17 200.31 57.27 206.00 L 42.32 206.00 C 42.36 200.07 42.44 194.13 42.26 188.20 Z" />
<path fill="#f3ba50" d=" M 62.34 189.19 C 63.10 189.05 64.63 188.76 65.40 188.62 C 65.58 194.41 65.41 200.21 65.46 206.00 L 62.19 206.00 C 62.42 200.40 62.35 194.79 62.34 189.19 Z" />
</svg>
