<?xml version="1.0" encoding="UTF-8" ?>
<!DOCTYPE svg PUBLIC "-//W3C//DTD SVG 1.1//EN" "http://www.w3.org/Graphics/SVG/1.1/DTD/svg11.dtd">
<svg width="149pt" height="408pt" viewBox="0 0 149 408" version="1.1" xmlns="http://www.w3.org/2000/svg">
<path fill="#ffffff" d=" M 0.00 0.00 L 83.28 0.00 L 83.55 0.66 L 82.73 0.75 L 82.36 0.82 C 79.14 1.36 75.94 2.09 72.87 3.22 C 70.99 3.88 69.13 4.59 67.28 5.32 C 59.19 5.08 51.09 5.23 43.00 5.20 C 42.93 7.83 42.93 10.46 43.00 13.09 C 33.23 16.64 24.13 22.40 17.76 30.74 C 10.52 39.84 6.62 51.45 6.70 63.06 C 6.66 86.01 6.47 108.95 6.57 131.90 C 4.38 132.08 2.19 132.16 0.00 132.15 L 0.00 0.00 Z" />
<path fill="#d0a758" d=" M 83.28 0.00 L 88.73 0.00 C 87.36 1.39 85.24 1.72 83.55 0.66 L 83.28 0.00 Z" />
<path fill="#f3ba50" d=" M 88.73 0.00 L 93.51 0.00 C 94.54 0.27 95.58 0.55 96.62 0.84 L 97.36 1.39 C 96.76 1.86 95.57 2.81 94.98 3.28 C 94.64 6.79 94.67 10.32 94.85 13.84 C 91.81 13.82 88.77 13.82 85.73 13.80 C 85.18 9.38 87.35 3.56 82.73 0.75 L 83.55 0.66 C 85.24 1.72 87.36 1.39 88.73 0.00 Z" />
<path fill="#ffffff" d=" M 93.51 0.00 L 149.00 0.00 L 149.00 121.08 C 146.58 121.14 144.17 121.26 141.76 121.41 C 141.64 103.28 141.71 85.15 141.59 67.02 C 141.40 57.37 142.41 47.48 139.62 38.08 C 135.34 22.46 123.20 9.39 108.07 3.67 C 104.43 2.12 100.52 1.39 96.62 0.84 C 95.58 0.55 94.54 0.27 93.51 0.00 Z" />
<path fill="#393325" d=" M 72.87 3.22 C 75.94 2.09 79.14 1.36 82.36 0.82 C 82.02 1.19 81.35 1.93 81.01 2.30 C 77.74 5.22 76.79 9.62 77.07 13.83 C 77.07 14.65 77.08 16.28 77.09 17.10 C 77.13 20.20 77.16 23.30 77.17 26.40 C 75.48 27.52 73.89 28.78 72.37 30.11 C 65.61 36.61 63.44 47.29 67.16 55.90 C 69.07 60.82 73.09 64.41 77.14 67.59 C 77.13 68.46 77.11 70.20 77.11 71.07 C 77.88 77.82 75.07 85.96 80.25 91.47 C 80.69 91.97 81.13 92.48 81.56 92.99 C 82.12 94.06 82.59 95.17 82.94 96.33 C 83.50 101.80 83.63 107.32 84.49 112.76 C 84.99 112.93 86.00 113.26 86.51 113.43 L 87.36 113.54 C 88.74 113.52 90.12 113.48 91.50 113.43 L 91.52 114.30 C 91.22 114.79 90.63 115.76 90.33 116.25 C 91.74 115.12 93.15 113.99 94.50 112.79 C 94.54 113.13 94.63 113.80 94.68 114.14 C 93.89 116.68 91.33 117.68 89.26 118.95 C 85.77 117.27 81.61 116.61 78.39 114.72 C 77.72 108.95 77.16 103.16 76.66 97.38 C 73.43 95.81 69.67 94.36 68.24 90.74 C 65.66 84.87 67.93 78.25 66.89 72.10 C 65.83 69.71 63.93 67.85 62.22 65.93 C 61.74 84.32 62.11 102.73 62.01 121.14 C 56.75 121.15 51.48 121.14 46.22 121.14 C 46.19 117.91 44.63 115.04 43.91 111.97 C 44.31 109.26 46.04 106.86 45.96 104.06 C 45.94 86.04 45.96 68.03 46.02 50.02 C 46.26 41.57 49.40 33.50 53.10 26.02 C 57.19 19.39 61.59 12.61 68.14 8.16 C 70.01 6.82 72.13 5.55 72.87 3.22 Z" />
<path fill="#aa7c2c" d=" M 82.36 0.82 L 82.73 0.75 C 87.35 3.56 85.18 9.38 85.73 13.80 C 84.22 13.79 82.71 13.78 81.20 13.79 C 81.30 9.96 81.38 6.12 81.01 2.30 C 81.35 1.93 82.02 1.19 82.36 0.82 Z" />
<path fill="#b1b5b5" d=" M 96.62 0.84 C 100.52 1.39 104.43 2.12 108.07 3.67 L 106.92 4.28 C 112.51 8.54 118.32 12.73 122.05 18.84 C 117.47 17.68 112.43 18.96 109.80 23.11 C 107.52 20.00 106.29 15.33 102.68 13.63 L 102.44 13.63 C 102.70 9.77 102.09 5.63 99.15 2.86 C 98.70 2.49 97.80 1.76 97.36 1.39 L 96.62 0.84 Z" />
<path fill="#f3dd90" d=" M 94.98 3.28 C 95.57 2.81 96.76 1.86 97.36 1.39 C 97.80 1.76 98.70 2.49 99.15 2.86 C 99.18 6.51 99.19 10.15 99.14 13.80 C 97.71 13.83 96.28 13.84 94.85 13.84 C 94.67 10.32 94.64 6.79 94.98 3.28 Z" />
<path fill="#f3ba50" d=" M 77.07 13.83 C 76.79 9.62 77.74 5.22 81.01 2.30 C 81.38 6.12 81.30 9.96 81.20 13.79 C 79.82 13.80 78.44 13.82 77.07 13.83 Z" />
<path fill="#f3ba50" d=" M 99.15 2.86 C 102.09 5.63 102.70 9.77 102.44 13.63 C 101.62 13.67 99.97 13.75 99.14 13.80 C 99.19 10.15 99.18 6.51 99.15 2.86 Z" />
<path fill="#423d2e" d=" M 67.28 5.32 C 69.13 4.59 70.99 3.88 72.87 3.22 C 72.13 5.55 70.01 6.82 68.14 8.16 C 61.59 12.61 57.19 19.39 53.10 26.02 C 49.40 33.50 46.26 41.57 46.02 50.02 C 45.96 68.03 45.94 86.04 45.96 104.06 C 46.04 106.86 44.31 109.26 43.91 111.97 C 44.63 115.04 46.19 117.91 46.22 121.14 C 43.46 121.15 40.70 121.14 37.94 121.11 C 37.71 107.67 38.21 94.23 37.85 80.79 C 38.18 69.83 37.71 58.86 38.24 47.91 C 39.45 29.83 51.15 13.33 67.28 5.32 Z" />
<path fill="#9b9fa3" d=" M 106.92 4.28 L 108.07 3.67 C 123.20 9.39 135.34 22.46 139.62 38.08 C 142.41 47.48 141.40 57.37 141.59 67.02 C 141.71 85.15 141.64 103.28 141.76 121.41 C 124.36 121.52 106.94 121.84 89.53 121.49 C 89.46 120.86 89.33 119.59 89.26 118.95 C 91.33 117.68 93.89 116.68 94.68 114.14 C 94.63 113.80 94.54 113.13 94.50 112.79 C 95.12 107.60 94.91 102.37 94.81 97.16 C 95.14 97.19 95.80 97.25 96.13 97.28 C 96.46 96.00 96.75 94.71 97.04 93.42 C 97.34 93.17 97.94 92.66 98.23 92.41 C 98.49 92.17 99.00 91.70 99.25 91.46 C 101.02 89.73 102.27 87.45 102.35 84.93 C 102.65 80.04 102.40 75.14 102.43 70.24 L 102.43 69.90 C 102.29 67.34 103.18 64.99 105.22 63.38 C 112.14 57.03 114.02 46.19 110.31 37.67 C 108.65 33.62 105.64 30.31 102.33 27.52 C 102.49 24.06 102.44 20.59 102.49 17.12 C 102.54 15.96 102.60 14.79 102.68 13.63 C 106.29 15.33 107.52 20.00 109.80 23.11 C 109.21 25.67 108.66 28.52 109.93 30.98 C 110.95 33.31 113.27 34.56 115.23 35.98 C 119.14 48.98 117.71 62.64 117.89 76.00 C 118.00 91.00 117.80 105.99 118.03 120.98 C 123.35 121.21 128.67 121.26 133.99 120.96 C 134.36 98.97 134.00 76.96 134.16 54.96 C 134.42 45.16 131.70 35.49 127.23 26.83 C 126.14 23.78 124.40 21.06 122.05 18.84 C 118.32 12.73 112.51 8.54 106.92 4.28 Z" />
<path fill="#aea3a2" d=" M 43.00 5.20 C 51.09 5.23 59.19 5.08 67.28 5.32 C 51.15 13.33 39.45 29.83 38.24 47.91 C 37.71 58.86 38.18 69.83 37.85 80.79 C 36.44 94.39 38.23 108.15 36.98 121.76 C 34.96 121.77 32.94 121.91 30.97 122.39 C 31.68 122.70 33.10 123.31 33.80 123.62 C 34.02 127.15 34.14 130.68 34.64 134.19 L 34.68 134.72 C 33.85 134.65 32.18 134.50 31.34 134.43 C 31.35 135.17 31.36 136.65 31.37 137.38 C 68.30 137.24 105.23 137.33 142.16 137.47 L 142.16 137.72 C 107.45 137.46 72.74 137.72 38.03 137.77 C 38.10 139.96 38.17 142.16 38.24 144.35 C 36.41 144.56 33.36 144.31 33.64 147.01 C 34.12 149.10 36.43 148.67 38.04 148.90 C 38.05 149.66 38.07 151.19 38.08 151.96 C 38.09 152.64 38.10 154.00 38.11 154.68 C 36.70 154.81 35.29 154.97 33.88 155.15 C 33.91 156.33 33.95 157.51 34.00 158.70 C 35.34 158.83 36.68 158.94 38.03 159.04 C 38.04 159.79 38.07 161.28 38.08 162.02 C 38.09 162.84 38.13 164.48 38.14 165.30 C 36.41 165.51 34.70 165.82 32.97 166.09 C 37.24 167.54 35.60 172.48 35.93 175.91 C 35.23 176.00 33.84 176.19 33.15 176.28 C 33.14 176.89 33.12 178.12 33.11 178.74 L 33.44 178.77 C 34.96 178.90 36.48 179.01 38.00 179.10 C 38.11 186.39 37.83 193.68 38.30 200.96 C 38.30 269.97 38.26 338.99 38.21 408.00 L 6.87 408.00 C 6.77 335.19 6.89 262.39 6.92 189.58 C 5.30 189.39 3.46 189.86 1.99 189.07 C 1.73 184.79 1.94 180.51 1.96 176.24 C 3.60 176.20 5.25 176.17 6.89 176.14 C 6.90 174.05 6.91 171.96 6.91 169.87 C 5.19 169.43 1.93 169.86 2.27 167.16 C 2.40 164.86 5.37 165.36 6.92 164.86 C 6.90 163.09 6.89 161.33 6.87 159.57 C 5.10 159.27 2.02 159.60 2.23 156.97 C 2.42 154.61 5.33 155.21 6.95 154.74 C 6.93 152.46 6.90 150.17 6.88 147.89 C 4.58 147.87 2.29 147.85 0.00 147.85 L 0.00 132.15 C 2.19 132.16 4.38 132.08 6.57 131.90 C 6.47 108.95 6.66 86.01 6.70 63.06 C 6.62 51.45 10.52 39.84 17.76 30.74 C 24.13 22.40 33.23 16.64 43.00 13.09 C 42.93 10.46 42.93 7.83 43.00 5.20 Z" />
<path fill="#8b682a" d=" M 77.07 13.83 C 78.44 13.82 79.82 13.80 81.20 13.79 C 82.71 13.78 84.22 13.79 85.73 13.80 C 88.77 13.82 91.81 13.82 94.85 13.84 C 96.28 13.84 97.71 13.83 99.14 13.80 C 99.97 13.75 101.62 13.67 102.44 13.63 L 102.68 13.63 C 102.60 14.79 102.54 15.96 102.49 17.12 C 101.65 17.12 99.95 17.11 99.10 17.10 C 97.68 17.10 96.27 17.10 94.85 17.10 C 91.83 17.09 88.82 17.11 85.80 17.14 C 84.27 17.16 82.75 17.16 81.22 17.15 C 79.84 17.14 78.46 17.12 77.09 17.10 C 77.08 16.28 77.07 14.65 77.07 13.83 Z" />
<path fill="#f3ba50" d=" M 77.09 17.10 C 78.46 17.12 79.84 17.14 81.22 17.15 C 81.82 19.37 79.73 23.91 82.86 24.35 C 80.91 24.88 79.01 25.57 77.17 26.40 C 77.16 23.30 77.13 20.20 77.09 17.10 Z" />
<path fill="#aa7c2c" d=" M 81.22 17.15 C 82.75 17.16 84.27 17.16 85.80 17.14 C 85.69 19.36 85.58 21.58 85.44 23.80 C 84.79 23.93 83.51 24.21 82.86 24.35 C 79.73 23.91 81.82 19.37 81.22 17.15 Z" />
<path fill="#f3ba50" d=" M 85.80 17.14 C 88.82 17.11 91.83 17.09 94.85 17.10 C 94.80 19.35 94.74 21.60 94.68 23.85 C 91.61 23.69 88.51 23.49 85.44 23.80 C 85.58 21.58 85.69 19.36 85.80 17.14 Z" />
<path fill="#f3dd90" d=" M 94.85 17.10 C 96.27 17.10 97.68 17.10 99.10 17.10 C 99.12 19.99 99.17 22.87 99.25 25.75 C 100.28 26.33 101.31 26.92 102.33 27.52 C 105.64 30.31 108.65 33.62 110.31 37.67 C 114.02 46.19 112.14 57.03 105.22 63.38 C 103.57 61.71 101.93 60.04 100.44 58.22 L 101.01 57.31 C 106.37 51.04 105.92 40.78 99.75 35.22 C 93.79 29.39 83.42 29.63 77.54 35.48 C 75.73 33.77 74.01 31.98 72.37 30.11 C 73.89 28.78 75.48 27.52 77.17 26.40 C 79.01 25.57 80.91 24.88 82.86 24.35 C 83.51 24.21 84.79 23.93 85.44 23.80 C 88.51 23.49 91.61 23.69 94.68 23.85 C 94.74 21.60 94.80 19.35 94.85 17.10 Z" />
<path fill="#f3ba50" d=" M 99.10 17.10 C 99.95 17.11 101.65 17.12 102.49 17.12 C 102.44 20.59 102.49 24.06 102.33 27.52 C 101.31 26.92 100.28 26.33 99.25 25.75 C 99.17 22.87 99.12 19.99 99.10 17.10 Z" />
<path fill="#d8dcd7" d=" M 109.80 23.11 C 112.43 18.96 117.47 17.68 122.05 18.84 C 124.40 21.06 126.14 23.78 127.23 26.83 C 126.25 29.45 125.63 32.51 123.20 34.23 C 120.98 36.10 117.94 35.84 115.23 35.98 C 113.27 34.56 110.95 33.31 109.93 30.98 C 108.66 28.52 109.21 25.67 109.80 23.11 Z" />
<path fill="#b1b5b5" d=" M 127.23 26.83 C 131.70 35.49 134.42 45.16 134.16 54.96 C 134.00 76.96 134.36 98.97 133.99 120.96 C 128.67 121.26 123.35 121.21 118.03 120.98 C 117.80 105.99 118.00 91.00 117.89 76.00 C 117.71 62.64 119.14 48.98 115.23 35.98 C 117.94 35.84 120.98 36.10 123.20 34.23 C 125.63 32.51 126.25 29.45 127.23 26.83 Z" />
<path fill="#bc873f" d=" M 67.16 55.90 C 63.44 47.29 65.61 36.61 72.37 30.11 C 74.01 31.98 75.73 33.77 77.54 35.48 C 71.19 41.45 71.19 52.45 77.53 58.42 C 83.79 64.90 95.38 64.33 101.01 57.31 L 100.44 58.22 C 101.93 60.04 103.57 61.71 105.22 63.38 C 103.18 64.99 102.29 67.34 102.43 69.90 C 102.31 69.15 102.07 67.66 101.95 66.92 C 94.45 71.69 85.03 70.94 77.14 67.59 C 73.09 64.41 69.07 60.82 67.16 55.90 Z" />
<path fill="#a55239" d=" M 77.54 35.48 C 83.42 29.63 93.79 29.39 99.75 35.22 C 105.92 40.78 106.37 51.04 101.01 57.31 C 95.38 64.33 83.79 64.90 77.53 58.42 C 71.19 52.45 71.19 41.45 77.54 35.48 Z" />
<path fill="#c9543e" d=" M 85.32 33.39 C 93.16 31.06 101.84 37.00 102.80 45.02 C 104.23 52.98 97.24 61.39 89.07 61.00 C 81.51 61.52 74.48 54.59 74.88 47.03 C 74.49 40.73 79.29 34.87 85.32 33.39 Z" />
<path fill="#110806" d=" M 81.66 38.95 C 82.87 38.95 83.97 39.31 84.95 40.02 C 86.88 38.52 89.34 39.01 91.59 39.05 C 92.94 40.14 95.63 40.62 95.06 42.98 C 97.13 40.81 99.60 42.46 101.01 44.37 C 101.00 45.58 101.00 46.80 101.01 48.01 C 100.25 48.01 98.75 48.01 98.00 48.02 L 98.00 46.03 L 96.81 46.27 C 97.11 46.93 97.72 48.24 98.02 48.89 C 97.92 50.40 95.88 50.94 95.91 52.55 C 97.00 53.40 97.38 54.60 97.06 56.15 C 94.66 55.75 92.64 54.30 90.54 53.17 C 88.39 52.95 86.19 52.54 84.51 51.07 C 83.47 51.03 82.43 50.99 81.39 50.95 C 79.73 48.94 76.81 48.42 75.73 45.86 C 77.36 45.83 78.59 47.12 80.22 47.09 C 79.39 46.03 78.53 44.98 77.70 43.92 C 78.98 43.91 80.13 44.31 81.13 45.12 C 81.00 43.93 80.58 42.86 79.86 41.90 C 80.49 42.20 81.76 42.79 82.39 43.09 C 82.93 42.56 83.47 42.02 84.01 41.49 C 83.18 40.68 82.40 39.84 81.66 38.95 Z" />
<path fill="#eeb64f" d=" M 87.00 39.98 C 87.65 40.00 88.96 40.04 89.61 40.06 C 90.98 41.39 93.60 40.72 94.18 42.98 C 92.89 42.99 91.60 43.01 90.31 43.03 L 89.66 43.85 C 89.25 43.92 88.42 44.05 88.00 44.11 L 88.00 45.00 C 88.50 45.00 89.50 45.00 90.00 45.00 C 90.00 45.46 90.00 46.39 89.99 46.85 C 87.89 46.70 87.00 48.72 86.27 50.31 C 85.82 47.80 82.55 49.49 80.82 48.98 C 81.56 46.65 84.15 46.63 86.08 47.41 C 86.48 46.95 86.71 46.42 86.78 45.82 L 86.31 45.44 C 86.47 44.99 86.79 44.09 86.95 43.64 C 87.17 43.43 87.61 43.01 87.83 42.80 L 89.12 42.89 C 89.20 41.48 88.49 40.90 87.00 41.16 L 87.00 39.98 Z" />
<path fill="#c32312" d=" M 83.45 43.39 C 84.42 42.56 87.23 40.99 87.83 42.80 C 87.61 43.01 87.17 43.43 86.95 43.64 C 85.44 44.37 84.27 44.29 83.45 43.39 Z" />
<path fill="#bc2112" d=" M 90.52 46.60 C 93.02 45.98 94.55 43.66 97.00 42.94 C 98.63 43.66 100.37 45.27 100.04 47.26 C 99.16 46.54 98.33 45.77 97.54 44.96 C 96.04 45.44 94.39 45.66 93.10 46.63 L 92.92 46.85 C 92.65 47.19 92.11 47.86 91.85 48.19 L 91.29 47.79 C 91.10 47.49 90.72 46.90 90.52 46.60 Z" />
<path fill="#c32312" d=" M 82.08 45.66 C 82.69 44.16 85.15 45.01 86.31 45.44 L 86.78 45.82 C 85.19 46.22 83.62 46.17 82.08 45.66 Z" />
<path fill="#f3ba50" d=" M 92.92 46.85 L 93.10 46.63 C 93.51 47.03 94.32 47.83 94.73 48.23 C 95.04 47.87 95.65 47.15 95.96 46.79 C 95.98 47.53 96.02 49.01 96.04 49.75 C 95.22 50.08 93.59 50.73 92.77 51.05 C 93.13 50.66 93.86 49.86 94.22 49.46 L 93.08 48.61 C 93.04 48.17 92.96 47.29 92.92 46.85 Z" />
<path fill="#c32312" d=" M 88.90 47.42 C 89.76 48.42 90.39 49.59 91.08 50.72 C 92.89 51.53 95.24 52.02 96.14 54.01 C 94.35 54.23 93.04 52.88 91.58 52.13 C 90.25 52.02 88.77 52.07 88.00 50.75 C 88.22 49.91 88.67 48.25 88.90 47.42 Z" />
<path fill="#f3ba50" d=" M 91.29 47.79 L 91.85 48.19 C 93.34 51.02 89.03 48.68 91.29 47.79 Z" />
<path fill="#423d2e" d=" M 62.22 65.93 C 63.93 67.85 65.83 69.71 66.89 72.10 C 67.93 78.25 65.66 84.87 68.24 90.74 C 69.67 94.36 73.43 95.81 76.66 97.38 C 77.16 103.16 77.72 108.95 78.39 114.72 C 81.61 116.61 85.77 117.27 89.26 118.95 C 89.33 119.59 89.46 120.86 89.53 121.49 C 86.38 121.40 83.22 121.40 80.07 121.36 C 74.06 120.94 68.03 121.20 62.01 121.14 C 62.11 102.73 61.74 84.32 62.22 65.93 Z" />
<path fill="#8b682a" d=" M 77.14 67.59 C 85.03 70.94 94.45 71.69 101.95 66.92 C 102.07 67.66 102.31 69.15 102.43 69.90 L 102.43 70.24 C 101.31 70.79 100.19 71.32 99.06 71.84 C 97.69 72.43 96.29 72.97 94.88 73.45 C 91.86 74.14 88.75 74.28 85.66 74.16 C 84.17 73.89 82.69 73.56 81.25 73.11 C 79.85 72.46 78.48 71.76 77.11 71.07 C 77.11 70.20 77.13 68.46 77.14 67.59 Z" />
<path fill="#f3ba50" d=" M 77.11 71.07 C 78.48 71.76 79.85 72.46 81.25 73.11 C 81.26 79.20 81.26 85.30 81.32 91.39 L 80.25 91.47 C 75.07 85.96 77.88 77.82 77.11 71.07 Z" />
<path fill="#f3ba50" d=" M 99.06 71.84 C 100.19 71.32 101.31 70.79 102.43 70.24 C 102.40 75.14 102.65 80.04 102.35 84.93 C 102.27 87.45 101.02 89.73 99.25 91.46 C 99.09 84.92 99.29 78.38 99.06 71.84 Z" />
<path fill="#f3dd90" d=" M 94.88 73.45 C 96.29 72.97 97.69 72.43 99.06 71.84 C 99.29 78.38 99.09 84.92 99.25 91.46 C 99.00 91.70 98.49 92.17 98.23 92.41 C 97.47 92.23 95.95 91.87 95.18 91.69 C 94.35 85.64 94.80 79.52 94.88 73.45 Z" />
<path fill="#aa7c2c" d=" M 81.25 73.11 C 82.69 73.56 84.17 73.89 85.66 74.16 C 85.57 79.42 85.82 84.69 85.59 89.95 C 85.63 92.05 82.90 92.04 81.56 92.99 C 81.13 92.48 80.69 91.97 80.25 91.47 L 81.32 91.39 C 81.26 85.30 81.26 79.20 81.25 73.11 Z" />
<path fill="#f3ba50" d=" M 85.66 74.16 C 88.75 74.28 91.86 74.14 94.88 73.45 C 94.80 79.52 94.35 85.64 95.18 91.69 C 95.95 91.87 97.47 92.23 98.23 92.41 C 97.94 92.66 97.34 93.17 97.04 93.42 C 92.07 95.34 86.48 94.79 81.56 92.99 C 82.90 92.04 85.63 92.05 85.59 89.95 C 85.82 84.69 85.57 79.42 85.66 74.16 Z" />
<path fill="#8e8d7d" d=" M 36.98 121.76 C 38.23 108.15 36.44 94.39 37.85 80.79 C 38.21 94.23 37.71 107.67 37.94 121.11 C 40.70 121.14 43.46 121.15 46.22 121.14 C 51.48 121.14 56.75 121.15 62.01 121.14 C 68.03 121.20 74.06 120.94 80.07 121.36 L 79.03 122.56 C 71.55 123.76 63.96 122.65 56.44 123.25 C 49.34 123.64 42.22 123.37 35.12 123.40 C 35.00 127.00 34.86 130.59 34.64 134.19 C 34.14 130.68 34.02 127.15 33.80 123.62 C 33.10 123.31 31.68 122.70 30.97 122.39 C 32.94 121.91 34.96 121.77 36.98 121.76 Z" />
<path fill="#8b682a" d=" M 81.56 92.99 C 86.48 94.79 92.07 95.34 97.04 93.42 C 96.75 94.71 96.46 96.00 96.13 97.28 C 95.80 97.25 95.14 97.19 94.81 97.16 C 94.13 97.08 92.78 96.92 92.11 96.85 C 90.29 96.81 88.48 96.87 86.68 96.93 C 86.49 102.49 88.05 107.98 87.36 113.54 L 86.51 113.43 C 85.09 108.35 85.37 103.04 85.26 97.83 C 84.68 97.45 83.52 96.70 82.94 96.33 C 82.59 95.17 82.12 94.06 81.56 92.99 Z" />
<path fill="#f3ba50" d=" M 82.94 96.33 C 83.52 96.70 84.68 97.45 85.26 97.83 C 85.37 103.04 85.09 108.35 86.51 113.43 C 86.00 113.26 84.99 112.93 84.49 112.76 C 83.63 107.32 83.50 101.80 82.94 96.33 Z" />
<path fill="#f3ba50" d=" M 86.68 96.93 C 88.48 96.87 90.29 96.81 92.11 96.85 C 91.89 102.38 91.01 107.89 91.50 113.43 C 90.12 113.48 88.74 113.52 87.36 113.54 C 88.05 107.98 86.49 102.49 86.68 96.93 Z" />
<path fill="#f3dd90" d=" M 92.11 96.85 C 92.78 96.92 94.13 97.08 94.81 97.16 C 94.91 102.37 95.12 107.60 94.50 112.79 C 93.15 113.99 91.74 115.12 90.33 116.25 C 90.63 115.76 91.22 114.79 91.52 114.30 L 91.50 113.43 C 91.01 107.89 91.89 102.38 92.11 96.85 Z" />
<path fill="#9b9fa3" d=" M 124.52 105.51 C 125.73 104.59 129.85 104.30 128.58 106.69 C 128.21 107.74 127.97 108.82 127.85 109.93 C 128.56 109.95 130.00 109.99 130.71 110.01 C 130.85 109.26 131.13 107.75 131.27 106.99 C 133.21 109.02 133.83 111.88 132.69 114.50 C 129.72 115.00 126.25 117.30 123.78 114.29 C 120.94 111.59 123.28 108.27 124.52 105.51 Z" />
<path fill="#595c4c" d=" M 47.16 108.25 C 48.67 104.95 52.64 105.92 55.46 106.46 C 56.96 109.28 57.46 113.63 53.95 115.20 C 49.82 117.82 44.23 112.33 47.16 108.25 Z" />
<path fill="#515557" d=" M 120.09 110.87 C 120.36 108.34 122.54 106.75 124.52 105.51 C 123.28 108.27 120.94 111.59 123.78 114.29 C 126.25 117.30 129.72 115.00 132.69 114.50 C 131.16 116.21 129.49 118.21 126.99 118.32 C 122.97 118.84 119.23 114.84 120.09 110.87 Z" />
<path fill="#cbcfc9" d=" M 52.22 107.17 C 53.91 105.60 56.27 108.04 54.85 109.78 C 53.04 111.13 50.84 108.98 52.22 107.17 Z" />
<path fill="#d2d6d2" d=" M 127.85 109.93 C 127.97 108.82 128.21 107.74 128.58 106.69 C 129.26 106.77 130.60 106.92 131.27 106.99 C 131.13 107.75 130.85 109.26 130.71 110.01 C 130.00 109.99 128.56 109.95 127.85 109.93 Z" />
<path fill="#d8dcd7" d=" M 80.07 121.36 C 83.22 121.40 86.38 121.40 89.53 121.49 C 106.94 121.84 124.36 121.52 141.76 121.41 C 144.17 121.26 146.58 121.14 149.00 121.08 L 149.00 123.26 C 146.22 123.26 143.45 123.26 140.67 123.23 C 134.44 123.14 128.21 123.18 121.99 123.24 C 114.98 123.27 107.98 123.33 100.98 123.22 C 93.67 122.89 86.27 123.85 79.03 122.56 L 80.07 121.36 Z" />
<path fill="#a9aa8c" d=" M 56.44 123.25 C 63.96 122.65 71.55 123.76 79.03 122.56 C 86.27 123.85 93.67 122.89 100.98 123.22 L 100.97 123.88 C 93.75 123.64 86.47 123.33 79.27 124.12 C 79.21 127.66 79.32 131.21 79.69 134.73 C 71.96 134.46 64.21 134.46 56.48 134.71 C 56.58 130.89 56.58 127.07 56.44 123.25 Z" />
<path fill="#53503d" d=" M 35.12 123.40 C 42.22 123.37 49.34 123.64 56.44 123.25 C 56.58 127.07 56.58 130.89 56.48 134.71 C 49.24 135.37 41.92 135.38 34.68 134.72 L 34.64 134.19 C 34.86 130.59 35.00 127.00 35.12 123.40 Z" />
<path fill="#a7aba5" d=" M 100.98 123.22 C 107.98 123.33 114.98 123.27 121.99 123.24 C 122.03 127.05 122.03 130.85 122.00 134.65 C 115.02 134.56 108.03 134.42 101.06 134.73 C 100.98 131.11 100.92 127.49 100.97 123.88 L 100.98 123.22 Z" />
<path fill="#c5c8c3" d=" M 121.99 123.24 C 128.21 123.18 134.44 123.14 140.67 123.23 C 140.31 127.02 140.24 130.85 140.70 134.64 C 134.47 134.77 128.23 134.77 122.00 134.65 C 122.03 130.85 122.03 127.05 121.99 123.24 Z" />
<path fill="#a7aba5" d=" M 140.67 123.23 C 143.45 123.26 146.22 123.26 149.00 123.26 L 149.00 134.56 C 146.23 134.55 143.47 134.56 140.70 134.64 C 140.24 130.85 140.31 127.02 140.67 123.23 Z" />
<path fill="#8f9580" d=" M 79.27 124.12 C 86.47 123.33 93.75 123.64 100.97 123.88 C 100.92 127.49 100.98 131.11 101.06 134.73 C 93.94 135.06 86.81 135.00 79.69 134.73 C 79.32 131.21 79.21 127.66 79.27 124.12 Z" />
<path fill="#423d2e" d=" M 31.34 134.43 C 32.18 134.50 33.85 134.65 34.68 134.72 C 41.92 135.38 49.24 135.37 56.48 134.71 C 64.21 134.46 71.96 134.46 79.69 134.73 C 86.81 135.00 93.94 135.06 101.06 134.73 C 108.03 134.42 115.02 134.56 122.00 134.65 C 128.23 134.77 134.47 134.77 140.70 134.64 C 143.47 134.56 146.23 134.55 149.00 134.56 L 149.00 137.34 C 146.72 137.51 144.44 137.50 142.16 137.47 C 105.23 137.33 68.30 137.24 31.37 137.38 C 31.36 136.65 31.35 135.17 31.34 134.43 Z" />
<path fill="#ffffff" d=" M 142.16 137.47 C 144.44 137.50 146.72 137.51 149.00 137.34 L 149.00 408.00 L 142.19 408.00 C 142.21 332.87 142.17 257.74 142.21 182.62 C 142.30 181.81 142.46 180.19 142.54 179.38 C 144.11 179.15 145.68 178.99 147.25 178.87 C 147.24 178.19 147.21 176.84 147.19 176.16 C 147.11 173.18 147.15 170.20 147.04 167.22 C 147.00 166.70 146.92 165.67 146.88 165.16 C 145.28 165.21 143.69 165.32 142.10 165.42 C 142.11 164.61 142.12 163.00 142.13 162.20 C 142.14 161.43 142.16 159.89 142.17 159.11 C 143.63 159.08 146.10 159.00 145.93 156.91 C 146.26 154.82 143.49 154.82 142.13 154.39 C 142.13 153.90 142.13 152.92 142.14 152.43 C 142.14 151.55 142.16 149.80 142.17 148.92 C 143.69 148.87 145.67 148.84 146.05 146.96 C 146.17 144.72 143.82 144.54 142.19 144.24 C 142.18 143.79 142.16 142.88 142.15 142.42 C 142.14 140.85 142.14 139.28 142.16 137.72 L 142.16 137.47 Z" />
<path fill="#2f291b" d=" M 38.03 137.77 C 72.74 137.72 107.45 137.46 142.16 137.72 C 142.14 139.28 142.14 140.85 142.15 142.42 C 133.77 142.53 125.36 140.60 117.00 142.24 C 108.20 142.70 99.36 142.33 90.55 142.40 C 90.21 142.90 89.54 143.91 89.20 144.41 C 72.21 144.30 55.23 144.52 38.24 144.35 C 38.17 142.16 38.10 139.96 38.03 137.77 Z" />
<path fill="#8f9580" d=" M 90.55 142.40 C 99.36 142.33 108.20 142.70 117.00 142.24 C 125.36 140.60 133.77 142.53 142.15 142.42 C 142.16 142.88 142.18 143.79 142.19 144.24 C 143.82 144.54 146.17 144.72 146.05 146.96 C 145.67 148.84 143.69 148.87 142.17 148.92 C 107.46 148.82 72.75 148.86 38.04 148.90 C 36.43 148.67 34.12 149.10 33.64 147.01 C 33.36 144.31 36.41 144.56 38.24 144.35 C 55.23 144.52 72.21 144.30 89.20 144.41 C 89.54 143.91 90.21 142.90 90.55 142.40 Z" />
<path fill="#d4d6cf" d=" M 97.60 146.06 C 112.81 145.99 128.02 145.88 143.23 146.12 C 142.54 147.81 140.35 146.95 138.97 147.22 C 125.36 147.06 111.72 147.41 98.12 147.05 L 97.60 146.06 Z" />
<path fill="#ffffff" d=" M 0.00 147.85 C 2.29 147.85 4.58 147.87 6.88 147.89 C 6.90 150.17 6.93 152.46 6.95 154.74 C 5.33 155.21 2.42 154.61 2.23 156.97 C 2.02 159.60 5.10 159.27 6.87 159.57 C 6.89 161.33 6.90 163.09 6.92 164.86 C 5.37 165.36 2.40 164.86 2.27 167.16 C 1.93 169.86 5.19 169.43 6.91 169.87 C 6.91 171.96 6.90 174.05 6.89 176.14 C 5.25 176.17 3.60 176.20 1.96 176.24 C 1.94 180.51 1.73 184.79 1.99 189.07 C 3.46 189.86 5.30 189.39 6.92 189.58 C 6.89 262.39 6.77 335.19 6.87 408.00 L 0.00 408.00 L 0.00 147.85 Z" />
<path fill="#2f291b" d=" M 38.04 148.90 C 72.75 148.86 107.46 148.82 142.17 148.92 C 142.16 149.80 142.14 151.55 142.14 152.43 C 124.85 151.79 107.55 152.87 90.26 152.27 C 72.88 151.30 55.47 152.99 38.08 151.96 C 38.07 151.19 38.05 149.66 38.04 148.90 Z" />
<path fill="#423d2e" d=" M 38.08 151.96 C 55.47 152.99 72.88 151.30 90.26 152.27 C 90.36 152.81 90.55 153.89 90.65 154.43 C 73.15 154.91 55.62 154.64 38.11 154.68 C 38.10 154.00 38.09 152.64 38.08 151.96 Z" />
<path fill="#8f9580" d=" M 90.26 152.27 C 107.55 152.87 124.85 151.79 142.14 152.43 C 142.13 152.92 142.13 153.90 142.13 154.39 C 143.49 154.82 146.26 154.82 145.93 156.91 C 146.10 159.00 143.63 159.08 142.17 159.11 C 107.45 158.99 72.74 159.13 38.03 159.04 C 36.68 158.94 35.34 158.83 34.00 158.70 C 33.95 157.51 33.91 156.33 33.88 155.15 C 35.29 154.97 36.70 154.81 38.11 154.68 C 55.62 154.64 73.15 154.91 90.65 154.43 C 90.55 153.89 90.36 152.81 90.26 152.27 Z" />
<path fill="#c7c9c0" d=" M 97.71 156.08 C 112.88 156.00 128.06 155.85 143.23 156.15 C 142.92 156.46 142.29 157.09 141.98 157.40 C 127.36 157.45 112.70 157.70 98.09 157.28 L 97.71 156.08 Z" />
<path fill="#2f291b" d=" M 38.03 159.04 C 72.74 159.13 107.45 158.99 142.17 159.11 C 142.16 159.89 142.14 161.43 142.13 162.20 C 124.71 161.67 107.30 162.46 89.87 162.18 C 72.60 161.83 55.34 162.84 38.08 162.02 C 38.07 161.28 38.04 159.79 38.03 159.04 Z" />
<path fill="#423d2e" d=" M 38.08 162.02 C 55.34 162.84 72.60 161.83 89.87 162.18 C 89.91 163.01 89.98 164.66 90.02 165.48 C 86.94 165.43 83.86 165.47 80.78 165.36 C 66.58 165.07 52.35 165.26 38.14 165.30 C 38.13 164.48 38.09 162.84 38.08 162.02 Z" />
<path fill="#5f6160" d=" M 89.87 162.18 C 107.30 162.46 124.71 161.67 142.13 162.20 C 142.12 163.00 142.11 164.61 142.10 165.42 C 124.74 165.47 107.38 165.64 90.02 165.48 C 89.98 164.66 89.91 163.01 89.87 162.18 Z" />
<path fill="#8f9580" d=" M 38.14 165.30 C 52.35 165.26 66.58 165.07 80.78 165.36 C 80.86 165.81 81.02 166.72 81.10 167.18 C 72.74 167.34 64.39 167.14 56.03 167.21 C 55.73 170.13 55.63 173.07 55.75 176.00 L 55.25 175.70 C 55.18 173.01 55.21 170.33 55.15 167.64 C 49.09 167.46 43.03 167.52 36.97 167.61 C 36.94 170.32 36.98 173.04 36.89 175.75 L 35.93 175.91 C 35.60 172.48 37.24 167.54 32.97 166.09 C 34.70 165.82 36.41 165.51 38.14 165.30 Z" />
<path fill="#d8dcd7" d=" M 80.78 165.36 C 83.86 165.47 86.94 165.43 90.02 165.48 C 107.38 165.64 124.74 165.47 142.10 165.42 C 143.69 165.32 145.28 165.21 146.88 165.16 C 146.92 165.67 147.00 166.70 147.04 167.22 C 144.40 167.27 141.75 167.31 139.11 167.22 C 133.80 166.95 128.48 166.92 123.16 167.17 C 115.14 167.40 107.12 167.31 99.10 167.23 C 93.10 167.25 87.10 167.21 81.10 167.18 C 81.02 166.72 80.86 165.81 80.78 165.36 Z" />
<path fill="#a9aa8c" d=" M 56.03 167.21 C 64.39 167.14 72.74 167.34 81.10 167.18 C 87.10 167.21 93.10 167.25 99.10 167.23 L 99.14 167.91 C 93.11 167.64 87.07 167.61 81.04 167.95 C 80.95 170.75 80.98 173.56 81.17 176.36 C 72.72 175.67 64.22 176.35 55.75 176.00 C 55.63 173.07 55.73 170.13 56.03 167.21 Z" />
<path fill="#a7aba5" d=" M 99.10 167.23 C 107.12 167.31 115.14 167.40 123.16 167.17 C 123.23 170.19 123.22 173.20 123.14 176.22 C 115.15 176.20 107.16 176.09 99.17 176.29 C 99.32 173.49 99.34 170.70 99.14 167.91 L 99.10 167.23 Z" />
<path fill="#c5c8c3" d=" M 123.16 167.17 C 128.48 166.92 133.80 166.95 139.11 167.22 C 139.13 170.22 139.13 173.22 139.11 176.23 C 133.79 176.28 128.46 176.28 123.14 176.22 C 123.22 173.20 123.23 170.19 123.16 167.17 Z" />
<path fill="#a7aba5" d=" M 139.11 167.22 C 141.75 167.31 144.40 167.27 147.04 167.22 C 147.15 170.20 147.11 173.18 147.19 176.16 C 144.50 176.18 141.80 176.19 139.11 176.23 C 139.13 173.22 139.13 170.22 139.11 167.22 Z" />
<path fill="#53503d" d=" M 36.97 167.61 C 43.03 167.52 49.09 167.46 55.15 167.64 C 55.21 170.33 55.18 173.01 55.25 175.70 L 55.75 176.00 C 64.22 176.35 72.72 175.67 81.17 176.36 C 65.82 177.16 50.40 176.65 35.03 176.92 C 34.64 177.38 33.84 178.31 33.44 178.77 L 33.11 178.74 C 33.12 178.12 33.14 176.89 33.15 176.28 C 33.84 176.19 35.23 176.00 35.93 175.91 L 36.89 175.75 C 36.98 173.04 36.94 170.32 36.97 167.61 Z" />
<path fill="#8f9580" d=" M 81.04 167.95 C 87.07 167.61 93.11 167.64 99.14 167.91 C 99.34 170.70 99.32 173.49 99.17 176.29 C 93.17 176.53 87.17 176.30 81.17 176.36 C 80.98 173.56 80.95 170.75 81.04 167.95 Z" />
<path fill="#423d2e" d=" M 81.17 176.36 C 87.17 176.30 93.17 176.53 99.17 176.29 C 107.16 176.09 115.15 176.20 123.14 176.22 C 128.46 176.28 133.79 176.28 139.11 176.23 C 141.80 176.19 144.50 176.18 147.19 176.16 C 147.21 176.84 147.24 178.19 147.25 178.87 C 145.68 178.99 144.11 179.15 142.54 179.38 C 140.03 179.14 137.50 178.94 134.97 179.00 C 102.96 179.12 70.94 178.88 38.93 179.12 C 38.38 185.09 38.50 191.11 38.91 197.09 C 40.57 196.68 42.22 196.23 43.87 195.77 C 44.60 195.89 46.07 196.13 46.81 196.26 C 47.15 266.83 46.85 337.42 46.97 408.00 L 38.21 408.00 C 38.26 338.99 38.30 269.97 38.30 200.96 C 37.83 193.68 38.11 186.39 38.00 179.10 C 36.48 179.01 34.96 178.90 33.44 178.77 C 33.84 178.31 34.64 177.38 35.03 176.92 C 50.40 176.65 65.82 177.16 81.17 176.36 Z" />
<path fill="#2f291b" d=" M 38.93 179.12 C 70.94 178.88 102.96 179.12 134.97 179.00 C 137.50 178.94 140.03 179.14 142.54 179.38 C 142.46 180.19 142.30 181.81 142.21 182.62 C 139.54 182.71 136.86 182.81 134.19 182.96 C 128.76 183.29 123.34 183.67 117.94 184.25 C 109.21 185.04 100.49 186.04 91.80 187.27 C 84.24 188.54 76.59 189.34 69.08 190.92 C 60.72 192.75 52.18 193.71 43.87 195.77 C 42.22 196.23 40.57 196.68 38.91 197.09 C 38.50 191.11 38.38 185.09 38.93 179.12 Z" />
<path fill="#b8bab8" d=" M 117.94 184.25 C 123.34 183.67 128.76 183.29 134.19 182.96 C 134.60 255.32 134.20 327.69 134.40 400.04 C 134.43 402.70 134.29 405.35 134.08 408.00 L 118.01 408.00 C 118.01 333.42 118.15 258.83 117.94 184.25 Z" />
<path fill="#9d9fa1" d=" M 134.19 182.96 C 136.86 182.81 139.54 182.71 142.21 182.62 C 142.17 257.74 142.21 332.87 142.19 408.00 L 134.08 408.00 C 134.29 405.35 134.43 402.70 134.40 400.04 C 134.20 327.69 134.60 255.32 134.19 182.96 Z" />
<path fill="#8d9188" d=" M 91.80 187.27 C 100.49 186.04 109.21 185.04 117.94 184.25 C 118.15 258.83 118.01 333.42 118.01 408.00 L 91.76 408.00 C 91.79 334.42 91.70 260.85 91.80 187.27 Z" />
<path fill="#423d2e" d=" M 69.08 190.92 C 76.59 189.34 84.24 188.54 91.80 187.27 C 91.70 260.85 91.79 334.42 91.76 408.00 L 69.18 408.00 C 69.14 335.64 69.33 263.28 69.08 190.92 Z" />
<path fill="#332e1e" d=" M 43.87 195.77 C 52.18 193.71 60.72 192.75 69.08 190.92 C 69.33 263.28 69.14 335.64 69.18 408.00 L 46.97 408.00 C 46.85 337.42 47.15 266.83 46.81 196.26 C 46.07 196.13 44.60 195.89 43.87 195.77 Z" />
</svg>
